<?xml version="1.0" encoding="UTF-8" standalone="no"?>
<svg
   version="1.1"
   id="Lager_1"
   x="0px"
   y="0px"
   viewBox="0 0 449.29999 68.509705"
   xml:space="preserve"
   width="449.29999"
   height="68.509705"
   sodipodi:docname="Swedbank wordmark.svg"
   inkscape:version="1.4 (86a8ad7, 2024-10-11)"
   xmlns:inkscape="http://www.inkscape.org/namespaces/inkscape"
   xmlns:sodipodi="http://sodipodi.sourceforge.net/DTD/sodipodi-0.dtd"
   xmlns="http://www.w3.org/2000/svg"
   xmlns:svg="http://www.w3.org/2000/svg"><defs
   id="defs786" /><sodipodi:namedview
   id="namedview786"
   pagecolor="#ffffff"
   bordercolor="#000000"
   borderopacity="0.25"
   inkscape:showpageshadow="2"
   inkscape:pageopacity="0.0"
   inkscape:pagecheckerboard="0"
   inkscape:deskcolor="#d1d1d1"
   inkscape:zoom="1.4824415"
   inkscape:cx="204.05527"
   inkscape:cy="42.834743"
   inkscape:window-width="1920"
   inkscape:window-height="1001"
   inkscape:window-x="-9"
   inkscape:window-y="-9"
   inkscape:window-maximized="1"
   inkscape:current-layer="g786" />
<style
   type="text/css"
   id="style1">
	.st0{fill-rule:evenodd;clip-rule:evenodd;fill:url(#SVGID_1_);}
	.st1{fill-rule:evenodd;clip-rule:evenodd;fill:url(#SVGID_2_);}
	.st2{fill:url(#SVGID_3_);}
	.st3{fill:url(#SVGID_4_);}
	.st4{fill:#FAAF5A;}
	.st5{fill:#B43C19;}
	.st6{fill:url(#SVGID_5_);}
	.st7{fill:url(#SVGID_6_);}
	.st8{fill:url(#SVGID_7_);}
	.st9{fill:url(#SVGID_8_);}
	.st10{fill:url(#SVGID_9_);}
	.st11{fill:url(#SVGID_10_);}
	.st12{fill:url(#SVGID_11_);}
	.st13{fill:url(#SVGID_12_);}
	.st14{fill:url(#SVGID_13_);}
	.st15{fill:url(#SVGID_14_);}
	.st16{fill:url(#SVGID_15_);}
	.st17{fill:url(#SVGID_16_);}
	.st18{fill:url(#SVGID_17_);}
	.st19{fill:url(#SVGID_18_);}
	.st20{fill:url(#SVGID_19_);}
	.st21{fill:url(#SVGID_20_);}
	.st22{fill:url(#SVGID_21_);}
	.st23{fill:url(#SVGID_22_);}
	.st24{fill:url(#SVGID_23_);}
	.st25{fill:url(#SVGID_24_);}
	.st26{fill:url(#SVGID_25_);}
	.st27{fill:url(#SVGID_26_);}
	.st28{fill:url(#SVGID_27_);}
	.st29{fill:url(#SVGID_28_);}
	.st30{fill:url(#SVGID_29_);}
	.st31{fill:url(#SVGID_30_);}
	.st32{fill:url(#SVGID_31_);}
	.st33{fill:url(#SVGID_32_);}
	.st34{fill:url(#SVGID_33_);}
	.st35{fill:url(#SVGID_34_);}
	.st36{fill:url(#SVGID_35_);}
	.st37{fill:url(#SVGID_36_);}
	.st38{fill:url(#SVGID_37_);}
	.st39{fill:url(#SVGID_38_);}
	.st40{fill:url(#SVGID_39_);}
	.st41{fill:url(#SVGID_40_);}
	.st42{fill:url(#SVGID_41_);}
	.st43{fill:url(#SVGID_42_);}
	.st44{fill:#9F5024;}
	.st45{fill:#F29B40;}
	.st46{fill:#FFB560;}
	.st47{fill:#EFA952;}
	.st48{fill:#FDAC4A;}
	.st49{fill:#7E3717;}
	.st50{fill:#DC8730;}
	.st51{fill:#FFC378;}
	.st52{fill:#B46027;}
	.st53{fill:#F8A943;}
	.st54{fill:#EC9C4B;}
	.st55{fill:#BF6B29;}
	.st56{fill:#8D4428;}
	.st57{fill:#AD5725;}
	.st58{fill:#E48E33;}
	.st59{fill:#DB7B29;}
	.st60{fill:#BC6327;}
	.st61{fill:#FFCB80;}
	.st62{fill:#FFD68E;}
	.st63{fill:#D57C3F;}
	.st64{fill:#FFCD85;}
	.st65{fill:#EB962A;}
	.st66{fill:#FFCE89;}
	.st67{fill:#FFD79D;}
	.st68{fill:#EEAF67;}
	.st69{fill:#FCB664;}
	.st70{fill:#994822;}
	.st71{fill:#D47429;}
	.st72{fill:#E7944B;}
	.st73{fill:#964C25;}
	.st74{fill:#823D1E;}
	.st75{fill:#6C2B13;}
	.st76{fill:#BA6019;}
	.st77{fill:#D89050;}
	.st78{fill:#94441E;}
	.st79{fill:#DD8732;}
	.st80{fill:#FFC278;}
	.st81{fill:#EA913E;}
	.st82{fill:#C57231;}
	.st83{fill:#642813;}
	.st84{fill:#56220C;}
	.st85{fill:#F49E4D;}
	.st86{fill:#76310A;}
	.st87{fill:#994B17;}
	.st88{fill:#A35622;}
	.st89{fill:#AF6638;}
	.st90{fill:#A5572A;}
	.st91{fill:#E69646;}
	.st92{fill:#D27C3C;}
	.st93{fill:#7A2C13;}
	.st94{fill:#C27138;}
	.st95{fill:#9A4921;}
	.st96{fill:#96441E;}
	.st97{fill:#A04E14;}
	.st98{fill:#AA5A28;}
	.st99{fill:#944428;}
	.st100{fill:#FFC283;}
	.st101{fill:#AA5E33;}
	.st102{fill:#E5872B;}
	.st103{fill:#B96534;}
	.st104{fill:none;}
	.st105{fill:#FF5F00;}
</style>
<g
   id="Lager_2_1_"
   transform="translate(-1.1,-30.490296)">
	<g
   id="Lager_1-2">
		<g
   id="g786">
			
			<g
   id="g778">
				<polygon
   class="st104"
   points="0,1 0,0 1,0 "
   id="polygon777" />
				<rect
   x="597"
   y="129"
   class="st104"
   width="1"
   height="1"
   id="rect777" />
			</g>
			<g
   id="g785">
				<path
   class="st105"
   d="m 3.4,49.5 c 0,12.3 8.2,16.8 20.5,19.9 11.7,2.8 14.1,6.4 14.1,11 0,5.1 -4.6,8.7 -11.1,8.7 -7.1,0 -13.1,-2.6 -19.5,-8.3 -0.2,0.3 -6.1,7.5 -6.3,7.8 6.9,6.5 16.1,10.1 25.6,10.1 13.1,0 21.9,-7.8 21.9,-19.4 C 48.6,69.1 42.5,63.1 28.9,59.6 16.5,56.5 14.1,53.2 14.1,48.4 c 0,-4.1 3.5,-8.3 10.2,-8.3 5.5,0 11,2.1 16.7,6.5 0.2,-0.3 5.5,-8 5.6,-8.2 -6.2,-5.2 -14.1,-8.1 -22.2,-7.9 -12.2,0.1 -21,8.1 -21,19 z"
   id="path778" />
				<path
   class="st105"
   d="M 83.4,49.7 C 83.4,49.9 73,83.4 73,83.4 L 63.5,49.8 H 52.9 c 0.1,0.4 14.9,48.1 15,48.4 h 9.3 C 77.3,98 87.8,64.7 87.8,64.7 c 0,0 10.5,33.3 10.6,33.5 h 9.3 c 0.1,-0.2 15,-47.9 15.2,-48.4 h -10.3 c -0.1,0.2 -9.7,33.6 -9.7,33.6 L 92.3,49.7 Z"
   id="path779" />
				<path
   class="st105"
   d="M 127.9,73.9 V 74 c 0,14.4 10,24.9 23.8,24.9 6.2,0.2 12.3,-1.6 17.5,-5 -0.1,-0.2 -2.7,-8.1 -2.8,-8.4 -4.2,3 -9.3,4.5 -14.4,4.3 -7.4,0 -12.5,-4.5 -13.6,-12 v -0.2 h 34.3 v -0.1 l 0.2,-2.9 c 0,-12.9 -6.9,-25.8 -22.2,-25.8 -13.1,0 -22.8,10.8 -22.8,25.1 z m 10.2,-3.5 c 1,-7.8 5.8,-12.9 12.3,-12.9 6.6,0 11.2,4.9 12,12.9 v 0.2 h -24.3 z"
   id="path780" />
				<path
   class="st105"
   d="M 218.4,30.6 V 54 l -0.3,-0.2 c -4,-3.3 -9.1,-5.1 -14.3,-4.9 -10.7,0 -21.5,8.6 -21.5,24.9 V 74 c 0,16.4 11.4,24.9 22.6,24.9 7.9,-0.2 15.9,-0.9 23.7,-2.2 V 30.6 Z m -25.6,43.3 v -0.2 c 0,-9.1 5.7,-15.7 13.6,-15.7 7.3,0 12.1,4.9 12.1,6.9 v 23.8 h -0.1 c -4,0.6 -8,0.9 -12,0.8 -7.7,0.1 -13.6,-6.6 -13.6,-15.6 z"
   id="path781" />
				<path
   class="st105"
   d="m 242.5,30.6 v 66.1 c 7.8,1.3 15.8,2 23.7,2.2 11.2,0 22.6,-8.6 22.6,-24.9 V 73.8 C 288.8,57.4 278,48.9 267.3,48.9 262.1,48.7 257,50.5 253,53.8 L 252.7,54 V 30.6 Z m 10.3,58.2 h -0.1 V 65 c 0,-2 4.8,-6.9 12.1,-6.9 7.9,0 13.6,6.6 13.6,15.7 V 74 c 0,8.9 -5.8,15.7 -13.6,15.7 -4,0 -8,-0.3 -12,-0.9 z"
   id="path782" />
				<path
   class="st105"
   d="m 301.6,53.1 c 0.1,0.3 2.7,8.2 2.8,8.6 4.1,-1.9 8.7,-2.9 13.2,-3 7.5,0 11.7,3.7 11.7,10.5 v 1.2 l -0.2,-0.1 c -4.1,-1.4 -8.5,-2.1 -12.8,-2 -11.7,0 -18.7,5.9 -18.7,15.7 v 0.2 c 0,10.1 8.5,14.8 16.4,14.8 8.6,-0.1 17.1,-0.9 25.5,-2.2 V 69.4 c 0,-13.2 -7,-20.2 -20.3,-20.2 -6.1,-0.2 -12.1,1.2 -17.6,3.9 z m 6.2,30.5 v -0.2 c 0,-4.8 4.1,-7.7 10.9,-7.7 3.7,0 7.3,0.6 10.8,1.9 h 0.1 V 90 h -0.1 c -4.1,0.6 -8.2,0.9 -12.4,0.9 -5.7,0 -9.3,-3 -9.3,-7.3 z"
   id="path783" />
				<path
   class="st105"
   d="m 352.5,51 v 46.8 h 10.3 v -39 h 0.1 c 3.5,-0.5 7,-0.8 10.5,-0.8 6.4,0 10.2,4.7 10.2,12.4 v 27.3 h 10.3 V 67.3 c 0,-11.4 -6.3,-18.4 -16.4,-18.4 -8.3,0.1 -16.7,0.8 -25,2.1 z"
   id="path784" />
				<path
   class="st105"
   d="m 407.3,30.6 v 67.3 h 10.3 V 84.1 l 6.7,-7.3 14.1,21 h 12 C 450,97.3 431.3,69.3 431.3,69.3 l 18.4,-19.5 h -12.5 c -0.1,0.1 -19.6,21.7 -19.6,21.7 v -41 h -10.3 z"
   id="path785" />
			</g>
		</g>
	</g>
</g>
</svg>
